<?xml version="1.0" encoding="iso-8859-1"?>
<!-- Generator: Adobe Illustrator 29.5.1, SVG Export Plug-In . SVG Version: 9.03 Build 0)  -->
<svg version="1.1" id="Layer_1" xmlns="http://www.w3.org/2000/svg" xmlns:xlink="http://www.w3.org/1999/xlink" x="0px" y="0px"
	 viewBox="0 0 330.283 26.698" style="enable-background:new 0 0 330.283 26.698;" xml:space="preserve">
<g>
	<g>
		<g>
			<path style="fill:#29367C;" d="M6.001,20.685c1.259,0.562,2.652,0.876,4.12,0.876c5.59,0,10.122-4.531,10.122-10.121
				c0-1.812-0.478-3.511-1.312-4.982L6.001,20.685z"/>
			<path style="fill:#29367C;" d="M15.248,2.713c-1.504-0.886-3.254-1.395-5.126-1.395C4.532,1.318,0,5.849,0,11.44
				c0,1.269,0.235,2.482,0.662,3.602L15.248,2.713z"/>
		</g>
		<path style="fill:#5C9CD4;" d="M4.216,19.804L21.324,0L1.197,16.808l0,0c-0.595,0.39-0.991,1.061-0.991,1.823
			c0,1.204,0.975,2.178,2.177,2.178c0.546,0,1.044-0.202,1.426-0.535l0,0H3.81C3.966,20.138,4.103,19.979,4.216,19.804z">
<animateTransform
			    attributeName="transform"
			    type="translate"
			    from="100 -100"
			    to="0 0"
			    dur="0.5s"
			    begin="0s"
			    fill="freeze"
			  />
			</path>
	</g>
</g>
<g>
	<path style="fill:#29367C;" d="M33.602,3.072l2.277,11.166h0.061l2.277-11.166h8.076V21.92h-5.283V7.877h-0.061L37.942,21.92
		h-4.068L30.869,7.877h-0.061V21.92h-5.283V3.072H33.602z"/>
	<path style="fill:#29367C;" d="M53.486,17.459c0,0.774,0.152,1.289,0.456,1.544c0.304,0.256,0.647,0.383,1.032,0.383
		c0.485,0,0.865-0.172,1.138-0.515c0.273-0.343,0.41-0.999,0.41-1.967h4.918c-0.041,1.76-0.557,3.085-1.548,3.973
		c-0.992,0.889-2.621,1.333-4.888,1.333c-1.316,0-2.419-0.128-3.31-0.383s-1.608-0.677-2.155-1.267
		c-0.546-0.59-0.937-1.359-1.169-2.31s-0.349-2.104-0.349-3.458c0-1.373,0.131-2.535,0.395-3.485
		c0.263-0.95,0.678-1.725,1.244-2.323s1.291-1.034,2.171-1.307c0.881-0.273,1.938-0.409,3.173-0.409
		c1.093,0,2.049,0.114,2.868,0.343c0.82,0.229,1.508,0.612,2.064,1.148c0.557,0.537,0.972,1.241,1.245,2.112s0.41,1.958,0.41,3.26
		v1.452h-8.106V17.459z M56.173,10.701c-0.213-0.352-0.613-0.528-1.199-0.528c-0.567,0-0.957,0.176-1.169,0.528
		c-0.213,0.352-0.319,0.906-0.319,1.663v0.634h3.006v-0.634C56.492,11.608,56.385,11.053,56.173,10.701z"/>
	<path style="fill:#29367C;" d="M63.898,7.639V3.442h5.465v4.197h2.155v3.194h-2.155v6.811c0,0.405,0.106,0.69,0.318,0.857
		c0.213,0.168,0.542,0.251,0.987,0.251h0.85v3.168c-0.506,0-1.012,0.014-1.518,0.04s-0.992,0.039-1.457,0.039
		c-0.83,0-1.539-0.031-2.125-0.093c-0.588-0.061-1.068-0.215-1.442-0.462c-0.375-0.246-0.648-0.61-0.819-1.095
		c-0.173-0.484-0.259-1.122-0.259-1.914v-7.603h-1.821V7.639H63.898z"/>
	<path style="fill:#29367C;" d="M77.649,17.459c0,0.774,0.152,1.289,0.456,1.544c0.304,0.256,0.647,0.383,1.032,0.383
		c0.485,0,0.865-0.172,1.138-0.515c0.273-0.343,0.41-0.999,0.41-1.967h4.918c-0.041,1.76-0.557,3.085-1.548,3.973
		c-0.992,0.889-2.621,1.333-4.888,1.333c-1.316,0-2.419-0.128-3.31-0.383s-1.608-0.677-2.155-1.267
		c-0.546-0.59-0.937-1.359-1.168-2.31c-0.232-0.95-0.349-2.104-0.349-3.458c0-1.373,0.131-2.535,0.395-3.485
		c0.262-0.95,0.677-1.725,1.243-2.323s1.291-1.034,2.171-1.307c0.881-0.273,1.938-0.409,3.173-0.409
		c1.093,0,2.049,0.114,2.868,0.343c0.82,0.229,1.508,0.612,2.064,1.148c0.557,0.537,0.972,1.241,1.245,2.112s0.41,1.958,0.41,3.26
		v1.452h-8.106V17.459z M80.336,10.701c-0.213-0.352-0.613-0.528-1.199-0.528c-0.567,0-0.957,0.176-1.169,0.528
		c-0.213,0.352-0.319,0.906-0.319,1.663v0.634h3.006v-0.634C80.655,11.608,80.548,11.053,80.336,10.701z"/>
	<path style="fill:#29367C;" d="M100.522,17.538c-0.151,0.897-0.47,1.693-0.956,2.389c-0.485,0.695-1.188,1.25-2.109,1.663
		c-0.921,0.413-2.151,0.62-3.688,0.62c-1.6,0-2.864-0.189-3.795-0.567c-0.932-0.378-1.63-0.906-2.095-1.584
		c-0.466-0.677-0.765-1.469-0.896-2.375c-0.132-0.906-0.197-1.879-0.197-2.917c0-0.933,0.075-1.849,0.228-2.746
		c0.151-0.897,0.471-1.698,0.956-2.402c0.486-0.704,1.188-1.271,2.11-1.703C91,7.485,92.23,7.27,93.769,7.27
		c1.599,0,2.863,0.198,3.794,0.594c0.931,0.396,1.629,0.937,2.095,1.624c0.465,0.686,0.764,1.483,0.896,2.389
		c0.131,0.907,0.197,1.879,0.197,2.917C100.751,15.726,100.675,16.641,100.522,17.538z M92.312,16.997
		c0.04,0.572,0.121,1.025,0.242,1.359c0.122,0.334,0.278,0.563,0.471,0.687s0.44,0.185,0.744,0.185s0.556-0.062,0.759-0.185
		c0.202-0.123,0.359-0.353,0.471-0.687c0.11-0.334,0.187-0.787,0.228-1.359c0.04-0.572,0.061-1.307,0.061-2.204
		s-0.021-1.637-0.061-2.218c-0.041-0.581-0.117-1.038-0.228-1.373c-0.111-0.334-0.269-0.563-0.471-0.687
		c-0.203-0.123-0.455-0.185-0.759-0.185s-0.552,0.062-0.744,0.185c-0.192,0.124-0.349,0.353-0.471,0.687
		c-0.121,0.334-0.202,0.792-0.242,1.373c-0.041,0.581-0.062,1.32-0.062,2.218S92.271,16.425,92.312,16.997z"/>
	<path style="fill:#29367C;" d="M107.582,7.639v2.271h0.061c0.304-0.862,0.789-1.518,1.457-1.967s1.406-0.673,2.216-0.673h0.881
		v4.435c-0.243-0.035-0.476-0.062-0.698-0.079s-0.445-0.026-0.668-0.026c-0.972,0-1.726,0.185-2.262,0.554
		c-0.536,0.37-0.805,1.03-0.805,1.98v7.787H102.3V7.639H107.582z"/>
	<path style="fill:#29367C;" d="M126.388,17.538c-0.151,0.897-0.47,1.693-0.956,2.389c-0.485,0.695-1.188,1.25-2.109,1.663
		c-0.922,0.413-2.151,0.62-3.688,0.62c-1.6,0-2.864-0.189-3.795-0.567c-0.932-0.378-1.63-0.906-2.095-1.584
		c-0.466-0.677-0.765-1.469-0.896-2.375c-0.132-0.906-0.197-1.879-0.197-2.917c0-0.933,0.075-1.849,0.228-2.746
		c0.151-0.897,0.471-1.698,0.956-2.402c0.486-0.704,1.188-1.271,2.11-1.703c0.92-0.431,2.149-0.646,3.688-0.646
		c1.599,0,2.863,0.198,3.795,0.594c0.931,0.396,1.629,0.937,2.095,1.624c0.465,0.686,0.764,1.483,0.896,2.389
		c0.131,0.907,0.197,1.879,0.197,2.917C126.616,15.726,126.54,16.641,126.388,17.538z M118.177,16.997
		c0.04,0.572,0.121,1.025,0.242,1.359c0.122,0.334,0.278,0.563,0.471,0.687s0.44,0.185,0.744,0.185s0.556-0.062,0.759-0.185
		c0.202-0.123,0.359-0.353,0.471-0.687c0.11-0.334,0.187-0.787,0.228-1.359c0.04-0.572,0.061-1.307,0.061-2.204
		s-0.021-1.637-0.061-2.218c-0.041-0.581-0.117-1.038-0.228-1.373c-0.111-0.334-0.269-0.563-0.471-0.687
		c-0.203-0.123-0.455-0.185-0.759-0.185s-0.552,0.062-0.744,0.185c-0.192,0.124-0.349,0.353-0.471,0.687
		c-0.121,0.334-0.202,0.792-0.242,1.373c-0.041,0.581-0.062,1.32-0.062,2.218S118.136,16.425,118.177,16.997z"/>
	<path style="fill:#29367C;" d="M133.871,3.072V21.92h-5.465V3.072H133.871z"/>
	<path style="fill:#29367C;" d="M149.397,17.538c-0.151,0.897-0.47,1.693-0.956,2.389c-0.485,0.695-1.188,1.25-2.109,1.663
		c-0.922,0.413-2.151,0.62-3.688,0.62c-1.6,0-2.864-0.189-3.795-0.567c-0.932-0.378-1.63-0.906-2.094-1.584
		c-0.466-0.677-0.765-1.469-0.896-2.375c-0.132-0.906-0.197-1.879-0.197-2.917c0-0.933,0.075-1.849,0.228-2.746
		c0.151-0.897,0.471-1.698,0.956-2.402c0.485-0.704,1.188-1.271,2.109-1.703c0.92-0.431,2.149-0.646,3.688-0.646
		c1.599,0,2.863,0.198,3.795,0.594c0.931,0.396,1.629,0.937,2.095,1.624c0.465,0.686,0.764,1.483,0.896,2.389
		c0.131,0.907,0.197,1.879,0.197,2.917C149.626,15.726,149.55,16.641,149.397,17.538z M141.187,16.997
		c0.04,0.572,0.121,1.025,0.242,1.359c0.122,0.334,0.278,0.563,0.471,0.687s0.44,0.185,0.744,0.185s0.556-0.062,0.759-0.185
		c0.202-0.123,0.359-0.353,0.471-0.687c0.11-0.334,0.187-0.787,0.228-1.359c0.04-0.572,0.061-1.307,0.061-2.204
		s-0.021-1.637-0.061-2.218c-0.041-0.581-0.117-1.038-0.228-1.373c-0.111-0.334-0.269-0.563-0.471-0.687
		c-0.203-0.123-0.455-0.185-0.759-0.185s-0.552,0.062-0.744,0.185c-0.192,0.124-0.349,0.353-0.471,0.687
		c-0.121,0.334-0.202,0.792-0.242,1.373c-0.041,0.581-0.062,1.32-0.062,2.218S141.146,16.425,141.187,16.997z"/>
	<path style="fill:#29367C;" d="M164.836,7.639v14.044c0,0.933-0.178,1.725-0.531,2.376c-0.354,0.65-0.841,1.17-1.457,1.557
		c-0.618,0.388-1.342,0.664-2.171,0.832c-0.83,0.167-1.73,0.251-2.702,0.251c-0.87,0-1.69-0.058-2.459-0.172
		c-0.77-0.115-1.442-0.321-2.019-0.62c-0.577-0.3-1.032-0.709-1.366-1.228c-0.334-0.52-0.512-1.184-0.531-1.993h4.918
		c0,0.352,0.121,0.624,0.364,0.818c0.243,0.193,0.577,0.29,1.002,0.29c0.202,0,0.404-0.018,0.607-0.053
		c0.202-0.035,0.379-0.114,0.531-0.237c0.151-0.123,0.277-0.3,0.379-0.528s0.152-0.546,0.152-0.95v-2.64h-0.062
		c-0.344,0.827-0.86,1.391-1.548,1.689c-0.688,0.3-1.407,0.449-2.155,0.449c-0.547,0-1.104-0.088-1.67-0.265
		c-0.566-0.176-1.083-0.519-1.548-1.029c-0.466-0.51-0.846-1.228-1.139-2.151c-0.294-0.924-0.44-2.125-0.44-3.604
		c0-1.372,0.116-2.521,0.35-3.445c0.232-0.924,0.566-1.663,1.002-2.217c0.435-0.554,0.966-0.95,1.594-1.188
		c0.627-0.237,1.335-0.356,2.125-0.356c0.769,0,1.487,0.176,2.155,0.528s1.153,0.959,1.457,1.821h0.061v-1.98H164.836z
		 M156.563,16.232c0.07,0.467,0.171,0.831,0.303,1.096c0.132,0.264,0.294,0.439,0.486,0.527c0.192,0.089,0.42,0.132,0.683,0.132
		c0.243,0,0.46-0.043,0.653-0.132c0.191-0.088,0.354-0.264,0.485-0.527c0.132-0.265,0.228-0.629,0.288-1.096
		c0.062-0.466,0.092-1.078,0.092-1.835c0-0.739-0.03-1.342-0.092-1.809c-0.061-0.465-0.156-0.831-0.288-1.095
		c-0.132-0.264-0.294-0.444-0.485-0.541c-0.193-0.096-0.41-0.145-0.653-0.145c-0.263,0-0.49,0.049-0.683,0.145
		c-0.192,0.097-0.354,0.277-0.486,0.541c-0.132,0.264-0.232,0.63-0.303,1.095c-0.071,0.467-0.106,1.069-0.106,1.809
		C156.457,15.154,156.492,15.766,156.563,16.232z"/>
	<path style="fill:#29367C;" d="M172.09,17.459c0,0.774,0.152,1.289,0.456,1.544c0.304,0.256,0.647,0.383,1.032,0.383
		c0.485,0,0.865-0.172,1.138-0.515c0.273-0.343,0.41-0.999,0.41-1.967h4.918c-0.041,1.76-0.557,3.085-1.548,3.973
		c-0.992,0.889-2.621,1.333-4.888,1.333c-1.316,0-2.419-0.128-3.31-0.383s-1.608-0.677-2.155-1.267
		c-0.546-0.59-0.937-1.359-1.169-2.31s-0.349-2.104-0.349-3.458c0-1.373,0.131-2.535,0.395-3.485
		c0.263-0.95,0.678-1.725,1.244-2.323s1.291-1.034,2.171-1.307c0.881-0.273,1.938-0.409,3.173-0.409
		c1.093,0,2.049,0.114,2.868,0.343c0.82,0.229,1.508,0.612,2.064,1.148c0.557,0.537,0.972,1.241,1.245,2.112s0.41,1.958,0.41,3.26
		v1.452h-8.106V17.459z M174.777,10.701c-0.213-0.352-0.613-0.528-1.199-0.528c-0.567,0-0.957,0.176-1.169,0.528
		c-0.213,0.352-0.319,0.906-0.319,1.663v0.634h3.006v-0.634C175.096,11.608,174.989,11.053,174.777,10.701z"/>
	<path style="fill:#29367C;" d="M186.996,7.639v1.743h0.061c0.709-1.408,2.034-2.112,3.978-2.112c0.606,0,1.169,0.057,1.685,0.171
		c0.517,0.115,0.966,0.321,1.351,0.62c0.385,0.3,0.688,0.696,0.911,1.188c0.223,0.493,0.334,1.126,0.334,1.901v10.77h-5.465v-9.424
		c0-0.598-0.102-1.03-0.303-1.293c-0.203-0.264-0.547-0.396-1.032-0.396c-0.486,0-0.83,0.132-1.032,0.396
		c-0.203,0.264-0.304,0.695-0.304,1.293v9.424h-5.465V7.639H186.996z"/>
	<path style="fill:#5C9CD4;" d="M205.938,3.072c1.64,0,2.915,0.26,3.825,0.779c0.911,0.519,1.594,1.214,2.05,2.085
		c0.455,0.871,0.732,1.875,0.834,3.01c0.102,1.135,0.152,2.319,0.152,3.55c0,1.232-0.051,2.415-0.152,3.551
		c-0.102,1.135-0.379,2.138-0.834,3.009c-0.456,0.871-1.139,1.566-2.05,2.086c-0.91,0.519-2.186,0.778-3.825,0.778h-8.195V3.072
		H205.938z M204.512,18.383c0.547,0,0.981-0.066,1.306-0.198c0.323-0.132,0.571-0.409,0.744-0.831
		c0.171-0.423,0.282-1.021,0.333-1.795s0.076-1.796,0.076-3.062c0-1.267-0.025-2.288-0.076-3.062s-0.162-1.373-0.333-1.795
		c-0.173-0.422-0.421-0.699-0.744-0.832c-0.324-0.132-0.759-0.198-1.306-0.198h-1.123v11.773H204.512z"/>
	<path style="fill:#5C9CD4;" d="M222.695,21.154c-0.04-0.264-0.081-0.545-0.121-0.845h-0.061c-0.304,0.634-0.785,1.108-1.442,1.426
		c-0.658,0.316-1.411,0.475-2.262,0.475c-0.83,0-1.533-0.092-2.109-0.276c-0.577-0.186-1.048-0.463-1.412-0.832
		s-0.627-0.81-0.789-1.32c-0.162-0.51-0.243-1.072-0.243-1.688c0-0.669,0.076-1.25,0.228-1.743c0.152-0.492,0.399-0.919,0.744-1.28
		c0.344-0.36,0.81-0.668,1.396-0.924c0.587-0.255,1.315-0.471,2.186-0.646l2.155-0.448c0.587-0.123,1.002-0.305,1.245-0.541
		c0.243-0.238,0.364-0.577,0.364-1.017c0-0.879-0.466-1.32-1.396-1.32c-0.526,0-0.911,0.128-1.153,0.383
		c-0.243,0.255-0.375,0.762-0.395,1.518h-4.736c0-1.038,0.213-1.87,0.638-2.495c0.425-0.625,0.951-1.109,1.578-1.452
		c0.628-0.343,1.306-0.572,2.034-0.687c0.729-0.114,1.406-0.171,2.034-0.171c0.951,0,1.826,0.066,2.626,0.198
		c0.799,0.132,1.487,0.37,2.064,0.713s1.021,0.81,1.336,1.399c0.313,0.59,0.471,1.351,0.471,2.283v6.969
		c0,0.669,0.03,1.259,0.091,1.769c0.061,0.511,0.202,0.951,0.425,1.32h-5.282C222.807,21.674,222.736,21.418,222.695,21.154z
		 M222.18,18.515c0.263-0.387,0.395-0.977,0.395-1.769V15.03h-0.061c-0.162,0.193-0.41,0.312-0.744,0.356s-0.703,0.145-1.107,0.304
		c-0.426,0.176-0.719,0.409-0.881,0.699s-0.243,0.673-0.243,1.148c0,0.475,0.122,0.854,0.364,1.135
		c0.243,0.282,0.566,0.423,0.972,0.423C221.481,19.096,221.916,18.903,222.18,18.515z"/>
	<path style="fill:#5C9CD4;" d="M234.413,18.278c0.062,0.246,0.162,0.448,0.304,0.606c0.263,0.335,0.647,0.502,1.154,0.502
		c0.425,0,0.794-0.105,1.107-0.316c0.313-0.212,0.471-0.511,0.471-0.897c0-0.423-0.197-0.748-0.592-0.978
		c-0.395-0.229-0.886-0.431-1.473-0.606s-1.22-0.36-1.897-0.555c-0.678-0.193-1.311-0.457-1.897-0.792
		c-0.587-0.334-1.077-0.778-1.472-1.333s-0.593-1.28-0.593-2.178c0-0.633,0.132-1.218,0.396-1.755
		c0.263-0.537,0.662-1.007,1.199-1.412c0.535-0.405,1.214-0.722,2.033-0.951c0.82-0.229,1.786-0.343,2.899-0.343
		c4.108,0,6.163,1.496,6.163,4.487h-4.736c0-0.616-0.126-1.034-0.379-1.254c-0.254-0.22-0.612-0.33-1.078-0.33
		c-0.405,0-0.739,0.097-1.002,0.291c-0.263,0.194-0.395,0.466-0.395,0.818c0,0.405,0.197,0.708,0.592,0.911s0.886,0.383,1.473,0.541
		c0.587,0.159,1.219,0.326,1.897,0.502c0.678,0.176,1.31,0.427,1.897,0.752c0.587,0.326,1.077,0.766,1.472,1.32
		c0.396,0.554,0.593,1.289,0.593,2.204c0,0.704-0.152,1.346-0.456,1.927c-0.303,0.581-0.733,1.082-1.29,1.505
		c-0.557,0.422-1.244,0.739-2.064,0.95c-0.819,0.211-1.745,0.316-2.777,0.316c-2.287,0-3.932-0.396-4.934-1.188
		s-1.503-1.971-1.503-3.537h4.797C234.322,17.767,234.353,18.031,234.413,18.278z"/>
	<path style="fill:#5C9CD4;" d="M249.623,3.072v6.15h0.061c0.465-0.756,1.047-1.271,1.745-1.544s1.382-0.409,2.05-0.409
		c0.566,0,1.107,0.062,1.624,0.185c0.516,0.124,0.972,0.334,1.366,0.633c0.395,0.3,0.708,0.7,0.94,1.201s0.35,1.122,0.35,1.861
		v10.77h-5.465v-9.424c0-0.598-0.102-1.03-0.303-1.293c-0.203-0.264-0.547-0.396-1.032-0.396c-0.486,0-0.83,0.132-1.032,0.396
		c-0.203,0.264-0.304,0.695-0.304,1.293v9.424h-5.465V3.072H249.623z"/>
	<path style="fill:#5C9CD4;" d="M265.5,3.072v6.177h0.061c0.283-0.739,0.732-1.254,1.351-1.544c0.616-0.291,1.31-0.436,2.079-0.436
		c0.789,0,1.497,0.119,2.125,0.356c0.627,0.238,1.153,0.634,1.579,1.188c0.425,0.554,0.753,1.293,0.986,2.217
		c0.232,0.924,0.349,2.073,0.349,3.445c0,2.658-0.364,4.611-1.093,5.86c-0.729,1.25-2.003,1.874-3.825,1.874
		c-0.971,0-1.751-0.176-2.337-0.527c-0.587-0.353-1.052-0.924-1.396-1.716h-0.062v1.953h-5.282V3.072H265.5z M265.561,16.694
		c0.04,0.511,0.116,0.92,0.228,1.228s0.269,0.523,0.47,0.646c0.202,0.123,0.455,0.185,0.759,0.185c0.324,0,0.587-0.062,0.79-0.185
		c0.202-0.123,0.358-0.339,0.47-0.646s0.188-0.717,0.229-1.228c0.04-0.511,0.061-1.144,0.061-1.9c0-0.774-0.021-1.417-0.061-1.928
		c-0.041-0.51-0.117-0.919-0.229-1.227c-0.111-0.308-0.268-0.523-0.47-0.647c-0.203-0.123-0.466-0.185-0.79-0.185
		c-0.304,0-0.557,0.062-0.759,0.185c-0.201,0.124-0.358,0.339-0.47,0.647c-0.111,0.308-0.188,0.717-0.228,1.227
		c-0.041,0.511-0.061,1.153-0.061,1.928C265.5,15.55,265.52,16.183,265.561,16.694z"/>
	<path style="fill:#5C9CD4;" d="M288.98,17.538c-0.151,0.897-0.47,1.693-0.956,2.389c-0.485,0.695-1.188,1.25-2.109,1.663
		c-0.922,0.413-2.151,0.62-3.688,0.62c-1.6,0-2.864-0.189-3.795-0.567c-0.932-0.378-1.63-0.906-2.095-1.584
		c-0.466-0.677-0.765-1.469-0.896-2.375c-0.132-0.906-0.197-1.879-0.197-2.917c0-0.933,0.075-1.849,0.228-2.746
		c0.151-0.897,0.471-1.698,0.956-2.402c0.486-0.704,1.188-1.271,2.11-1.703c0.92-0.431,2.149-0.646,3.688-0.646
		c1.599,0,2.863,0.198,3.795,0.594c0.931,0.396,1.629,0.937,2.095,1.624c0.465,0.686,0.764,1.483,0.896,2.389
		c0.131,0.907,0.197,1.879,0.197,2.917C289.209,15.726,289.133,16.641,288.98,17.538z M280.77,16.997
		c0.04,0.572,0.121,1.025,0.242,1.359c0.122,0.334,0.278,0.563,0.471,0.687s0.44,0.185,0.744,0.185s0.556-0.062,0.759-0.185
		c0.202-0.123,0.359-0.353,0.471-0.687c0.11-0.334,0.187-0.787,0.228-1.359c0.04-0.572,0.061-1.307,0.061-2.204
		s-0.021-1.637-0.061-2.218c-0.041-0.581-0.117-1.038-0.228-1.373c-0.111-0.334-0.269-0.563-0.471-0.687
		c-0.203-0.123-0.455-0.185-0.759-0.185s-0.552,0.062-0.744,0.185c-0.192,0.124-0.349,0.353-0.471,0.687
		c-0.121,0.334-0.202,0.792-0.242,1.373c-0.041,0.581-0.062,1.32-0.062,2.218S280.729,16.425,280.77,16.997z"/>
	<path style="fill:#5C9CD4;" d="M298.68,21.154c-0.04-0.264-0.081-0.545-0.121-0.845h-0.061c-0.304,0.634-0.785,1.108-1.442,1.426
		c-0.658,0.316-1.411,0.475-2.262,0.475c-0.83,0-1.533-0.092-2.109-0.276c-0.577-0.186-1.048-0.463-1.412-0.832
		s-0.627-0.81-0.789-1.32c-0.162-0.51-0.243-1.072-0.243-1.688c0-0.669,0.076-1.25,0.228-1.743c0.152-0.492,0.399-0.919,0.744-1.28
		c0.344-0.36,0.81-0.668,1.396-0.924c0.587-0.255,1.315-0.471,2.186-0.646l2.155-0.448c0.587-0.123,1.002-0.305,1.245-0.541
		c0.243-0.238,0.364-0.577,0.364-1.017c0-0.879-0.466-1.32-1.396-1.32c-0.526,0-0.911,0.128-1.153,0.383
		c-0.243,0.255-0.375,0.762-0.395,1.518h-4.736c0-1.038,0.213-1.87,0.638-2.495c0.425-0.625,0.951-1.109,1.578-1.452
		c0.628-0.343,1.306-0.572,2.034-0.687c0.729-0.114,1.406-0.171,2.034-0.171c0.951,0,1.826,0.066,2.626,0.198
		c0.799,0.132,1.487,0.37,2.064,0.713s1.021,0.81,1.336,1.399c0.313,0.59,0.471,1.351,0.471,2.283v6.969
		c0,0.669,0.03,1.259,0.091,1.769c0.061,0.511,0.202,0.951,0.425,1.32h-5.282C298.791,21.674,298.721,21.418,298.68,21.154z
		 M298.164,18.515c0.263-0.387,0.395-0.977,0.395-1.769V15.03h-0.061c-0.162,0.193-0.41,0.312-0.744,0.356s-0.703,0.145-1.107,0.304
		c-0.426,0.176-0.719,0.409-0.881,0.699s-0.243,0.673-0.243,1.148c0,0.475,0.122,0.854,0.364,1.135
		c0.243,0.282,0.566,0.423,0.972,0.423C297.466,19.096,297.9,18.903,298.164,18.515z"/>
	<path style="fill:#5C9CD4;" d="M311.219,7.639v2.271h0.061c0.304-0.862,0.789-1.518,1.457-1.967s1.406-0.673,2.216-0.673h0.881
		v4.435c-0.243-0.035-0.476-0.062-0.698-0.079s-0.445-0.026-0.668-0.026c-0.972,0-1.726,0.185-2.262,0.554
		c-0.536,0.37-0.805,1.03-0.805,1.98v7.787h-5.464V7.639H311.219z"/>
	<path style="fill:#5C9CD4;" d="M330.283,3.072V21.92h-5.282v-1.953h-0.062c-0.344,0.792-0.81,1.363-1.396,1.716
		c-0.587,0.352-1.365,0.527-2.337,0.527c-1.821,0-3.097-0.624-3.825-1.874c-0.729-1.249-1.093-3.202-1.093-5.86
		c0-1.354,0.121-2.49,0.364-3.405c0.242-0.915,0.581-1.654,1.017-2.217c0.436-0.563,0.967-0.967,1.594-1.214
		c0.627-0.246,1.315-0.369,2.064-0.369c0.77,0,1.462,0.145,2.08,0.436c0.617,0.29,1.066,0.805,1.351,1.544h0.061V3.072H330.283z
		 M321.813,16.694c0.04,0.511,0.116,0.92,0.228,1.228c0.11,0.308,0.268,0.523,0.471,0.646c0.201,0.123,0.465,0.185,0.789,0.185
		c0.304,0,0.557-0.062,0.759-0.185s0.359-0.339,0.471-0.646c0.11-0.308,0.187-0.717,0.228-1.228c0.04-0.511,0.061-1.144,0.061-1.9
		c0-0.774-0.021-1.417-0.061-1.928c-0.041-0.51-0.117-0.919-0.228-1.227c-0.111-0.308-0.269-0.523-0.471-0.647
		c-0.202-0.123-0.455-0.185-0.759-0.185c-0.324,0-0.588,0.062-0.789,0.185c-0.203,0.124-0.36,0.339-0.471,0.647
		c-0.111,0.308-0.188,0.717-0.228,1.227c-0.041,0.511-0.062,1.153-0.062,1.928C321.752,15.55,321.772,16.183,321.813,16.694z"/>
</g>
</svg>
